<svg width="108" height="108" viewBox="0 0 108 108" fill="none" xmlns="http://www.w3.org/2000/svg">
<ellipse cx="54.1245" cy="53.8256" rx="31.9936" ry="31.9244" fill="url(#paint0_radial_21443_64)"/>
<path d="M23.1493 49.766C23.1493 49.766 26.8119 61.7478 41.7459 70.9389C56.6798 80.1299 70.8923 80.5693 70.8923 80.5693" stroke="#1D717C" stroke-width="1.25" stroke-linecap="round"/>
<path d="M73.1248 65.4304C73.1248 65.4304 77.0278 60.8403 79.9585 54.1942C82.8891 47.5481 82.9613 41.9365 82.9613 41.9365" stroke="#1D717C" stroke-width="1.25" stroke-linecap="round"/>
<path d="M54.7325 59.7289C54.7325 59.7289 60.8585 56.1451 67.9 47.4414C74.9415 38.7377 76.2432 31.8114 76.2432 31.8114" stroke="#1D717C" stroke-width="1.25" stroke-linecap="round"/>
<path d="M37.853 50.4659C37.853 50.4659 48.4929 46.3611 55.3574 38.0591C62.222 29.7571 63.8751 24.5504 63.8751 24.5504" stroke="#1D717C" stroke-width="1.25" stroke-linecap="round"/>
<path d="M82.3195 66.9064C82.6644 66.8913 82.932 66.5995 82.917 66.2548C82.9021 65.91 82.6103 65.6428 82.2653 65.658L82.2924 66.2822L82.3195 66.9064ZM26.5692 39.3491C26.014 39.6366 26.0141 39.637 26.0143 39.6373C26.0144 39.6375 26.0147 39.6379 26.0148 39.6383C26.0152 39.639 26.0156 39.6398 26.0162 39.6408C26.0172 39.6428 26.0185 39.6453 26.0201 39.6484C26.0234 39.6545 26.0279 39.6629 26.0336 39.6735C26.045 39.6946 26.0614 39.7244 26.083 39.7626C26.1263 39.8392 26.1906 39.9494 26.278 40.0911C26.4528 40.3746 26.7202 40.7839 27.0975 41.3009C27.8521 42.3349 29.046 43.799 30.8177 45.548C34.3616 49.0468 40.2125 53.6811 49.4749 58.2936L49.754 57.7343L50.033 57.175C40.8835 52.6187 35.1421 48.0603 31.6966 44.6587C29.9736 42.9576 28.8235 41.5446 28.1078 40.564C27.75 40.0737 27.5006 39.6913 27.3425 39.4349C27.2635 39.3067 27.2072 39.21 27.1716 39.1471C27.1538 39.1156 27.1411 39.0925 27.1334 39.0782C27.1295 39.071 27.1268 39.0661 27.1253 39.0633C27.1246 39.0619 27.1242 39.0611 27.124 39.0608C27.124 39.0606 27.124 39.0606 27.124 39.0608C27.1241 39.0609 27.1242 39.0611 27.1242 39.0611C27.1243 39.0614 27.1245 39.0616 26.5692 39.3491ZM49.754 57.7343L49.4749 58.2936C58.7432 62.9091 66.9378 65.0629 72.8225 66.0626C75.7648 66.5624 78.1301 66.7737 79.7641 66.8599C80.5811 66.903 81.2154 66.9149 81.6477 66.9158C81.8638 66.9163 82.0295 66.914 82.1422 66.9116C82.1986 66.9104 82.2418 66.9092 82.2714 66.9082C82.2863 66.9077 82.2977 66.9073 82.3057 66.907C82.3097 66.9068 82.3129 66.9067 82.3152 66.9066C82.3163 66.9066 82.3173 66.9065 82.318 66.9065C82.3183 66.9065 82.3187 66.9065 82.3189 66.9065C82.3192 66.9064 82.3195 66.9064 82.2924 66.2822C82.2653 65.658 82.2655 65.658 82.2656 65.658C82.2656 65.658 82.2656 65.658 82.2656 65.658C82.2654 65.658 82.2651 65.658 82.2645 65.658C82.2633 65.6581 82.2613 65.6582 82.2585 65.6583C82.2528 65.6585 82.2437 65.6588 82.2312 65.6592C82.2063 65.66 82.1679 65.6612 82.1163 65.6623C82.0131 65.6645 81.8573 65.6666 81.6512 65.6662C81.239 65.6653 80.6258 65.654 79.8308 65.612C78.2407 65.5281 75.9235 65.3216 73.0328 64.8306C67.2512 63.8485 59.1766 61.7284 50.033 57.175L49.754 57.7343Z" fill="#1D717C"/>
<path d="M54.1241 22.6512C71.381 22.6512 85.3683 36.6104 85.3683 53.826C85.3681 71.0415 71.3809 84.9999 54.1241 84.9999C36.8676 84.9997 22.8812 71.0413 22.881 53.826C22.881 36.6106 36.8675 22.6515 54.1241 22.6512Z" stroke="black" stroke-width="1.5"/>
<defs>
<radialGradient id="paint0_radial_21443_64" cx="0" cy="0" r="1" gradientTransform="matrix(-21.5957 36.181 -36.2594 -21.549 59.7234 43.9823)" gradientUnits="userSpaceOnUse">
<stop stop-color="#39DEE6"/>
<stop offset="0.542461" stop-color="#2FAEC7"/>
<stop offset="1" stop-color="#1D747C"/>
</radialGradient>
</defs>
</svg>
