<svg width="200" height="200" viewBox="0 0 200 200" fill="none" xmlns="http://www.w3.org/2000/svg">
<ellipse cx="60" cy="7.5" rx="60" ry="7.5" transform="matrix(1 0 0 -1 40 171)" fill="#503A4B" fill-opacity="0.2"/>
<circle cx="100" cy="100" r="60" fill="url(#paint0_radial_22_426)"/>
<path d="M41.9099 92.3835C41.9099 92.3835 48.7755 114.897 76.7825 132.163C104.789 149.429 131.446 150.25 131.446 150.25" stroke="#1D717C" stroke-linecap="round"/>
<path d="M135.633 121.812C135.633 121.812 142.951 113.184 148.447 100.692C153.943 88.2006 154.081 77.6543 154.081 77.6543" stroke="#1D717C" stroke-linecap="round"/>
<path d="M101.14 111.099C101.14 111.099 112.627 104.361 125.833 88.0005C139.038 71.6399 141.481 58.6215 141.481 58.6215" stroke="#1D717C" stroke-linecap="round"/>
<path d="M69.485 93.691C69.485 93.691 89.4366 85.9723 102.311 70.3664C115.185 54.7604 118.286 44.9737 118.286 44.9737" stroke="#1D717C" stroke-linecap="round"/>
<path d="M152.843 123.91C153.119 123.898 153.333 123.664 153.321 123.388C153.309 123.113 153.075 122.899 152.799 122.911L152.821 123.411L152.843 123.91ZM48.3281 72.7925C47.8839 73.0219 47.884 73.0222 47.8842 73.0226C47.8844 73.0228 47.8846 73.0233 47.8848 73.0237C47.8853 73.0246 47.8859 73.0257 47.8866 73.0271C47.888 73.0299 47.89 73.0337 47.8926 73.0386C47.8978 73.0483 47.9052 73.0623 47.9149 73.0803C47.9343 73.1163 47.9631 73.1687 48.0016 73.2369C48.0786 73.3735 48.1948 73.5734 48.3542 73.8326C48.6729 74.3508 49.1645 75.1057 49.8615 76.0631C51.2554 77.9781 53.4704 80.7028 56.7662 83.9648C63.3583 90.4892 74.2707 99.1592 91.5789 107.798L91.8022 107.35L92.0255 106.903C74.8077 98.3096 63.983 89.7005 57.4696 83.254C54.2127 80.0305 52.0327 77.3468 50.67 75.4746C49.9886 74.5385 49.5114 73.8052 49.2059 73.3086C49.0532 73.0604 48.9434 72.8713 48.8725 72.7456C48.8371 72.6827 48.8113 72.6358 48.7948 72.6052C48.7866 72.5899 48.7806 72.5787 48.7769 72.5716C48.775 72.5681 48.7737 72.5656 48.773 72.5642C48.7726 72.5635 48.7724 72.563 48.7723 72.5628C48.7722 72.5627 48.7722 72.5628 48.7722 72.5627C48.7723 72.5629 48.7724 72.563 48.3281 72.7925ZM91.8022 107.35L91.5789 107.798C108.892 116.439 124.195 120.467 135.175 122.335C140.665 123.269 145.075 123.663 148.116 123.824C149.636 123.904 150.815 123.926 151.614 123.927C152.014 123.928 152.32 123.924 152.526 123.919C152.629 123.917 152.708 123.915 152.761 123.913C152.787 123.912 152.807 123.911 152.821 123.911C152.828 123.911 152.833 123.91 152.837 123.91C152.839 123.91 152.84 123.91 152.841 123.91C152.842 123.91 152.842 123.91 152.843 123.91C152.843 123.91 152.843 123.91 152.821 123.411C152.799 122.911 152.799 122.911 152.799 122.911C152.799 122.911 152.799 122.911 152.799 122.911C152.798 122.911 152.797 122.911 152.796 122.911C152.793 122.911 152.789 122.911 152.783 122.912C152.771 122.912 152.752 122.913 152.728 122.914C152.678 122.915 152.604 122.917 152.505 122.92C152.306 122.924 152.008 122.928 151.617 122.927C150.833 122.926 149.671 122.904 148.169 122.825C145.163 122.667 140.792 122.277 135.343 121.35C124.445 119.496 109.239 115.494 92.0255 106.903L91.8022 107.35Z" fill="#1D717C"/>
<circle cx="100" cy="100" r="59" stroke="black" stroke-width="2"/>
<circle cx="78" cy="94" r="17" fill="white" stroke="black" stroke-width="2"/>
<circle cx="81" cy="91" r="12.5" fill="black" stroke="black"/>
<circle cx="86" cy="89" r="4.5" fill="white" stroke="black"/>
<circle cx="122" cy="94" r="17" fill="white" stroke="black" stroke-width="2"/>
<circle cx="125" cy="91" r="12.5" fill="black" stroke="black"/>
<circle cx="130" cy="89" r="4.5" fill="white" stroke="black"/>
<path d="M108 121C108 123.652 107.21 126.196 105.803 128.071C104.397 129.946 102.489 131 100.5 131C98.5109 131 96.6032 129.946 95.1967 128.071C93.7902 126.196 93 123.652 93 121" stroke="black" stroke-width="2" stroke-linecap="round"/>
<path d="M55.5 139.5C55.5 139.5 34.7632 145 29.5 125C24.2369 105 9.49999 105 9.49999 105" stroke="black" stroke-width="3" stroke-linecap="round"/>
<path d="M56.803 58.6485C57.4107 59.2114 58.3598 59.175 58.9227 58.5673C59.4857 57.9595 59.4493 57.0104 58.8415 56.4475L57.8222 57.548L56.803 58.6485ZM32.8692 34.4361C35.8716 31.1946 35.6777 26.133 32.4362 23.1307C29.1947 20.1284 24.1331 20.3223 21.1308 23.5638C18.1284 26.8053 18.3223 31.8669 21.5638 34.8692C24.8053 37.8715 29.8669 37.6776 32.8692 34.4361ZM57.8222 57.548L58.8415 56.4475L28.0193 27.8995L27 29L25.9807 30.1004L56.803 58.6485L57.8222 57.548Z" fill="black"/>
<path d="M70.245 47.5662C70.5446 48.3385 71.4135 48.7219 72.1859 48.4223C72.9583 48.1228 73.3416 47.2538 73.0421 46.4814L71.6436 47.0238L70.245 47.5662ZM62.8926 24.4588C67.0119 22.8612 69.0563 18.2268 67.4588 14.1074C65.8612 9.98808 61.2268 7.94373 57.1074 9.54127C52.9881 11.1388 50.9437 15.7732 52.5413 19.8926C54.1388 24.012 58.7732 26.0563 62.8926 24.4588ZM71.6436 47.0238L73.0421 46.4814L61.3985 16.4577L60 17L58.6015 17.5424L70.245 47.5662L71.6436 47.0238Z" fill="black"/>
<defs>
<radialGradient id="paint0_radial_22_426" cx="0" cy="0" r="1" gradientUnits="userSpaceOnUse" gradientTransform="translate(100 55.5) rotate(90) scale(100)">
<stop stop-color="#39ECF5"/>
<stop offset="0.542461" stop-color="#2FAEC7"/>
<stop offset="0.802552" stop-color="#2D9FBB"/>
<stop offset="1" stop-color="#1D747C"/>
</radialGradient>
</defs>
</svg>
