<svg width="48" height="48" viewBox="0 0 48 48" fill="none" xmlns="http://www.w3.org/2000/svg">
<path d="M10.92 26.9649C10.92 26.9649 13.0215 33.8559 21.5938 39.1406C30.1662 44.4253 37.8582 44.6673 37.8582 44.6673" stroke="black" stroke-linecap="round"/>
<path d="M39.6066 35.9724C39.6066 35.9724 41.8467 33.3315 43.5289 29.5081C45.2111 25.6846 45.2532 22.4566 45.2532 22.4566" stroke="black" stroke-linecap="round"/>
<path d="M29.0492 32.6933C29.0492 32.6933 32.5652 30.631 36.607 25.6234C40.6489 20.6157 41.3966 16.6311 41.3966 16.6311" stroke="black" stroke-linecap="round"/>
<path d="M19.3602 27.3651C19.3602 27.3651 25.467 25.0026 29.4074 20.2259C33.3479 15.4492 34.2972 12.4537 34.2972 12.4537" stroke="black" stroke-linecap="round"/>
<path d="M44.8898 36.9612C45.1656 36.949 45.3794 36.7154 45.3672 36.4396C45.355 36.1637 45.1214 35.9499 44.8456 35.9621L44.8677 36.4617L44.8898 36.9612ZM12.8845 20.9685C12.4402 21.1979 12.4404 21.1982 12.4405 21.1985C12.4406 21.1986 12.4407 21.1989 12.4409 21.1992C12.4411 21.1997 12.4414 21.2003 12.4418 21.2009C12.4425 21.2023 12.4433 21.2039 12.4444 21.2059C12.4464 21.2098 12.4492 21.215 12.4527 21.2214C12.4596 21.2343 12.4695 21.2523 12.4823 21.275C12.508 21.3206 12.5458 21.3856 12.5969 21.4686C12.6991 21.6348 12.8546 21.8733 13.0733 22.1738C13.5107 22.7748 14.2008 23.623 15.2231 24.6347C17.2681 26.6588 20.6386 29.3336 25.9677 31.9934L26.191 31.546L26.4143 31.0986C21.1756 28.484 17.8928 25.8701 15.9265 23.924C14.9431 22.9507 14.2881 22.1434 13.8818 21.5853C13.6786 21.3061 13.5375 21.0892 13.4487 20.9447C13.4042 20.8725 13.3729 20.8184 13.3533 20.7837C13.3435 20.7663 13.3366 20.7538 13.3326 20.7463C13.3306 20.7426 13.3293 20.7401 13.3286 20.7389C13.3283 20.7383 13.3281 20.738 13.3282 20.738C13.3282 20.738 13.3282 20.7381 13.3283 20.7383C13.3284 20.7384 13.3285 20.7386 13.3285 20.7386C13.3286 20.7388 13.3287 20.7391 12.8845 20.9685ZM26.191 31.546L25.9677 31.9934C31.3016 34.6555 36.0188 35.898 39.4084 36.4746C41.1031 36.763 42.4663 36.8849 43.4092 36.9346C43.8807 36.9595 44.2472 36.9663 44.4976 36.9668C44.6228 36.967 44.719 36.9657 44.7848 36.9643C44.8177 36.9636 44.8431 36.9628 44.8606 36.9623C44.8694 36.962 44.8762 36.9617 44.8811 36.9615C44.8835 36.9614 44.8854 36.9613 44.8869 36.9613C44.8876 36.9613 44.8882 36.9612 44.8887 36.9612C44.8889 36.9612 44.8892 36.9612 44.8893 36.9612C44.8896 36.9612 44.8898 36.9612 44.8677 36.4617C44.8456 35.9621 44.8457 35.9621 44.8458 35.9621C44.8458 35.9621 44.8459 35.9621 44.8459 35.9621C44.8459 35.9621 44.8457 35.9621 44.8455 35.9621C44.8449 35.9622 44.8439 35.9622 44.8424 35.9623C44.8394 35.9624 44.8345 35.9626 44.8276 35.9628C44.8138 35.9633 44.7923 35.9639 44.7632 35.9645C44.7051 35.9658 44.6168 35.967 44.4996 35.9668C44.2653 35.9663 43.9157 35.9599 43.4618 35.936C42.5541 35.8881 41.2295 35.7701 39.5761 35.4888C36.2692 34.9262 31.6481 33.7109 26.4143 31.0986L26.191 31.546Z" fill="black"/>
<path d="M28.7007 11.9314C38.2908 11.9317 46.0649 19.7065 46.0649 29.2966C46.0647 38.8866 38.2906 46.6606 28.7007 46.6609C19.1105 46.6609 11.3357 38.8867 11.3354 29.2966C11.3354 19.7063 19.1104 11.9314 28.7007 11.9314Z" stroke="black" stroke-width="2"/>
<path d="M15.0797 41.3863C15.0797 41.3863 8.73257 43.0697 7.12163 36.9481C5.51069 30.8265 1.00003 30.8265 1.00003 30.8265" stroke="black" stroke-width="2" stroke-linecap="round"/>
<path d="M15.9341 17.7541L16.283 18.1123L16.9993 17.4145L16.6505 17.0563L16.2923 17.4052L15.9341 17.7541ZM6.71894 7.57742C7.77391 6.54977 7.79605 4.86147 6.7684 3.80651C5.74075 2.75154 4.05245 2.7294 2.99749 3.75705C1.94252 4.78471 1.92038 6.473 2.94803 7.52797C3.97568 8.58293 5.66398 8.60507 6.71894 7.57742ZM16.2923 17.4052L16.6505 17.0563L5.21638 5.31835L4.85822 5.66724L4.50006 6.01612L15.9341 17.7541L16.2923 17.4052Z" fill="black"/>
<path d="M19.9501 13.022L20.1152 13.494L21.0591 13.1638L20.894 12.6919L20.4221 12.8569L19.9501 13.022ZM18.0425 5.05648C19.3621 4.40239 19.9015 2.80245 19.2475 1.48291C18.5934 0.163367 16.9934 -0.376093 15.6739 0.277993C14.3543 0.93208 13.8149 2.53202 14.469 3.85156C15.1231 5.17111 16.723 5.71057 18.0425 5.05648ZM20.4221 12.8569L20.894 12.6919L17.3302 2.50217L16.8582 2.66724L16.3862 2.83231L19.9501 13.022L20.4221 12.8569Z" fill="black"/>
</svg>
