<svg width="108" height="108" viewBox="0 0 108 108" fill="none" xmlns="http://www.w3.org/2000/svg">
<ellipse cx="54.1244" cy="53.8256" rx="31.9936" ry="31.9244" fill="url(#paint0_radial_108_1010)"/>
<path d="M23.1494 49.766C23.1494 49.766 26.812 61.7478 41.746 70.9389C56.68 80.1299 70.8924 80.5693 70.8924 80.5693" stroke="#1D717C" stroke-width="1.25" stroke-linecap="round"/>
<path d="M73.125 65.4304C73.125 65.4304 77.0281 60.8403 79.9587 54.1942C82.8893 47.5481 82.9616 41.9365 82.9616 41.9365" stroke="#1D717C" stroke-width="1.25" stroke-linecap="round"/>
<path d="M54.7327 59.7289C54.7327 59.7289 60.8587 56.1451 67.9002 47.4414C74.9417 38.7377 76.2433 31.8114 76.2433 31.8114" stroke="#1D717C" stroke-width="1.25" stroke-linecap="round"/>
<path d="M37.8533 50.4659C37.8533 50.4659 48.4931 46.3611 55.3577 38.0591C62.2222 29.7571 63.8753 24.5504 63.8753 24.5504" stroke="#1D717C" stroke-width="1.25" stroke-linecap="round"/>
<path d="M82.3196 66.9064C82.6646 66.8913 82.9321 66.5995 82.9171 66.2548C82.9022 65.91 82.6104 65.6428 82.2655 65.658L82.2925 66.2822L82.3196 66.9064ZM26.5693 39.3491C26.0141 39.6366 26.0143 39.637 26.0145 39.6373C26.0146 39.6375 26.0148 39.6379 26.015 39.6383C26.0153 39.639 26.0158 39.6398 26.0163 39.6408C26.0173 39.6428 26.0186 39.6453 26.0203 39.6484C26.0235 39.6545 26.028 39.6629 26.0337 39.6735C26.0451 39.6946 26.0615 39.7244 26.0832 39.7626C26.1265 39.8392 26.1907 39.9494 26.2781 40.0911C26.453 40.3746 26.7203 40.7839 27.0976 41.3009C27.8523 42.3349 29.0461 43.799 30.8178 45.548C34.3617 49.0468 40.2126 53.6811 49.475 58.2936L49.7541 57.7343L50.0332 57.175C40.8837 52.6187 35.1422 48.0603 31.6968 44.6587C29.9737 42.9576 28.8236 41.5446 28.108 40.564C27.7501 40.0737 27.5007 39.6913 27.3426 39.4349C27.2636 39.3067 27.2073 39.21 27.1717 39.1471C27.1539 39.1156 27.1412 39.0925 27.1335 39.0782C27.1296 39.071 27.1269 39.0661 27.1255 39.0633C27.1247 39.0619 27.1243 39.0611 27.1241 39.0608C27.1241 39.0606 27.1241 39.0606 27.1242 39.0608C27.1242 39.0609 27.1243 39.0611 27.1243 39.0611C27.1244 39.0614 27.1246 39.0616 26.5693 39.3491ZM49.7541 57.7343L49.475 58.2936C58.7433 62.9091 66.9379 65.0629 72.8226 66.0626C75.765 66.5624 78.1302 66.7737 79.7642 66.8599C80.5812 66.903 81.2155 66.9149 81.6478 66.9158C81.8639 66.9163 82.0296 66.914 82.1424 66.9116C82.1988 66.9104 82.2419 66.9092 82.2716 66.9082C82.2864 66.9077 82.2978 66.9073 82.3058 66.907C82.3098 66.9068 82.313 66.9067 82.3153 66.9066C82.3164 66.9066 82.3174 66.9065 82.3181 66.9065C82.3185 66.9065 82.3188 66.9065 82.319 66.9065C82.3193 66.9064 82.3196 66.9064 82.2925 66.2822C82.2655 65.658 82.2656 65.658 82.2657 65.658C82.2657 65.658 82.2658 65.658 82.2657 65.658C82.2655 65.658 82.2652 65.658 82.2646 65.658C82.2635 65.6581 82.2615 65.6582 82.2586 65.6583C82.2529 65.6585 82.2438 65.6588 82.2313 65.6592C82.2064 65.66 82.168 65.6612 82.1164 65.6623C82.0133 65.6645 81.8574 65.6666 81.6513 65.6662C81.2392 65.6653 80.626 65.654 79.8309 65.612C78.2408 65.5281 75.9237 65.3216 73.0329 64.8306C67.2513 63.8485 59.1767 61.7284 50.0332 57.175L49.7541 57.7343Z" fill="#1D717C"/>
<path d="M54.124 22.6512C71.3809 22.6512 85.3682 36.6104 85.3682 53.826C85.3679 71.0415 71.3808 84.9999 54.124 84.9999C36.8675 84.9997 22.8811 71.0413 22.8809 53.826C22.8809 36.6106 36.8673 22.6515 54.124 22.6512Z" stroke="black" stroke-width="1.5"/>
<defs>
<radialGradient id="paint0_radial_108_1010" cx="0" cy="0" r="1" gradientTransform="matrix(-21.5957 36.181 -36.2594 -21.549 59.7233 43.9823)" gradientUnits="userSpaceOnUse">
<stop stop-color="#39DEE6"/>
<stop offset="0.542461" stop-color="#2FAEC7"/>
<stop offset="1" stop-color="#1D747C"/>
</radialGradient>
</defs>
</svg>
